<?xml version="1.0" encoding="utf-8"?><svg xmlns="http://www.w3.org/2000/svg" xmlns:xlink="http://www.w3.org/1999/xlink"><symbol viewBox="0 0 59.986 59.986" id="diamond" xmlns="http://www.w3.org/2000/svg"><path d="M59.972 20.164a1.005 1.005 0 0 0-.054-.531c-.009-.024-.011-.049-.022-.072-.008-.017-.022-.03-.031-.047-.009-.017-.013-.035-.023-.052l-10-16a1.026 1.026 0 0 0-.161-.197l-.003-.002a.983.983 0 0 0-.297-.185c-.014-.006-.023-.018-.038-.024-.011-.004-.023-.002-.034-.005a.98.98 0 0 0-.314-.057h-38a.977.977 0 0 0-.31.056c-.011.003-.022.001-.032.005-.015.005-.024.017-.038.023a.997.997 0 0 0-.287.175c-.005.005-.012.008-.017.012a1.006 1.006 0 0 0-.163.198l-10 16c-.01.016-.014.035-.023.052-.009.017-.023.03-.031.047-.011.023-.013.048-.023.072a.988.988 0 0 0 .025.789c.009.018.012.038.022.056.016.029.04.051.058.078.014.021.022.044.039.064l28.989 35.986a.043.043 0 0 0 .006.007l.005.007c.003.004.008.005.011.009a.982.982 0 0 0 .384.277.987.987 0 0 0 .383.087c.114 0 .229-.02.343-.061.017-.006.028-.02.045-.027.051-.021.091-.055.137-.084a.968.968 0 0 0 .206-.163c.014-.015.035-.022.048-.038l29-36c.016-.02.024-.044.039-.064.019-.027.042-.049.058-.078.01-.018.013-.038.022-.056a.945.945 0 0 0 .045-.115c.014-.047.028-.093.036-.142zM32.095 4.993h15.459l-4.86 13.045L32.095 4.993zm8.797 14H19.095L29.993 5.58l10.899 13.413zm-23.67-.868L12.423 4.993h15.469l-10.67 13.132zm24.371 2.868L29.818 52.599 18.269 20.993h23.324zm7.628-14.747l7.967 12.748H44.472l4.749-12.748zm-38.465.013l4.653 12.734H2.798l7.958-12.734zm5.384 14.734l10.839 29.664L3.083 20.993H16.14zm16.25 30.43l11.337-30.43h13.176L32.39 51.423z"/></symbol><symbol class="bsvg-inline--fa bfa-facebook-f bfa-w-10" viewBox="0 0 320 512" id="facebook-f-brands" xmlns="http://www.w3.org/2000/svg"><path d="M279.14 288l14.22-92.66h-88.91v-60.13c0-25.35 12.42-50.06 52.24-50.06h40.42V6.26S260.43 0 225.36 0c-73.22 0-121.08 44.38-121.08 124.72v70.62H22.89V288h81.39v224h100.17V288z"/></symbol><symbol class="csvg-inline--fa cfa-google-plus-g cfa-w-20" viewBox="0 0 640 512" id="google-plus-g-brands" xmlns="http://www.w3.org/2000/svg"><path d="M386.061 228.496c1.834 9.692 3.143 19.384 3.143 31.956C389.204 370.205 315.599 448 204.8 448c-106.084 0-192-85.915-192-192s85.916-192 192-192c51.864 0 95.083 18.859 128.611 50.292l-52.126 50.03c-14.145-13.621-39.028-29.599-76.485-29.599-65.484 0-118.92 54.221-118.92 121.277 0 67.056 53.436 121.277 118.92 121.277 75.961 0 104.513-54.745 108.965-82.773H204.8v-66.009h181.261zm185.406 6.437V179.2h-56.001v55.733h-55.733v56.001h55.733v55.733h56.001v-55.733H627.2v-56.001h-55.733z"/></symbol><symbol class="dsvg-inline--fa dfa-linkedin-in dfa-w-14" viewBox="0 0 448 512" id="linkedin-in-brands" xmlns="http://www.w3.org/2000/svg"><path d="M100.28 448H7.4V148.9h92.88zM53.79 108.1C24.09 108.1 0 83.5 0 53.8a53.79 53.79 0 0 1 107.58 0c0 29.7-24.1 54.3-53.79 54.3zM447.9 448h-92.68V302.4c0-34.7-.7-79.2-48.29-79.2-48.29 0-55.69 37.7-55.69 76.7V448h-92.78V148.9h89.08v40.8h1.3c12.4-23.5 42.69-48.3 87.88-48.3 94 0 111.28 61.9 111.28 142.3V448z"/></symbol><symbol viewBox="0 0 512 512" id="pencil" xmlns="http://www.w3.org/2000/svg"><path d="M504.843 72.607L439.386 7.15c-9.534-9.534-25.048-9.533-34.582 0L281.561 130.392a7.903 7.903 0 0 0 11.175 11.176L415.978 18.326c1.634-1.634 3.806-2.533 6.116-2.533s4.482.899 6.116 2.533l65.458 65.457a8.593 8.593 0 0 1 2.533 6.116c0 2.31-.9 4.482-2.533 6.115l-16.064 16.064-42.089-42.088a7.903 7.903 0 0 0-11.175 11.176l42.088 42.088-18.353 18.353-18.498-18.498a7.903 7.903 0 0 0-11.175 11.176l18.498 18.497-18.353 18.353-18.498-18.498a7.903 7.903 0 0 0-11.175 11.176l18.498 18.497-18.353 18.353-42.089-42.09a7.903 7.903 0 0 0-11.175 11.176l42.089 42.089-18.353 18.353-18.498-18.498a7.903 7.903 0 0 0-11.175 11.176l18.497 18.497-15.526 15.526-77.689-77.689 14.45-14.451a7.903 7.903 0 0 0-11.175-11.176l-14.451 14.451L98.156 22.264C88.018 12.126 74.539 6.543 60.202 6.543c-14.337.001-27.816 5.584-37.953 15.722C12.11 32.403 6.527 45.881 6.527 60.219c0 14.337 5.583 27.816 15.721 37.954l145.765 145.765L7.157 404.797c-9.534 9.535-9.534 25.048 0 34.583l65.457 65.458A24.294 24.294 0 0 0 89.905 512a24.294 24.294 0 0 0 17.291-7.162L268.054 343.98l11.457 11.457a7.903 7.903 0 0 0 11.175-11.176l-15.814-15.814a7.89 7.89 0 0 0-1.09-1.371 7.92 7.92 0 0 0-1.37-1.09L101.189 154.763l21.191-21.191 13.102 13.102c1.543 1.542 3.565 2.314 5.588 2.314s4.045-.772 5.588-2.314a7.903 7.903 0 0 0 0-11.176l-13.101-13.101 21.191-21.191 83.579 83.579a.1.1 0 0 0 .01.011l.011.01 88.081 88.081c.218.288.45.57.713.833s.544.495.832.713l117.268 117.268-21.191 21.191-118.316-118.316c-.071-.077-.135-.158-.21-.232l-47.182-47.183c-.078-.078-.163-.146-.243-.22l-83.343-83.342a7.903 7.903 0 0 0-11.175 11.176l249.291 249.291-21.192 21.191-75.096-75.097a7.903 7.903 0 0 0-11.175 11.176l80.684 80.684a7.984 7.984 0 0 0 2.728 1.778l95.478 37.069a12.824 12.824 0 0 0 13.707-2.891 12.822 12.822 0 0 0 2.88-13.707l-37.108-95.434a7.993 7.993 0 0 0-1.777-2.725L343.963 268.071l160.88-160.881c9.535-9.535 9.535-25.048 0-34.583zM256.882 332.805l-15.507 15.503-18.498-18.498a7.903 7.903 0 0 0-11.175 11.176l18.498 18.498-18.353 18.353-42.089-42.089a7.903 7.903 0 0 0-11.175 11.176l42.089 42.089-18.353 18.353-18.498-18.498a7.903 7.903 0 0 0-11.175 11.176l18.498 18.497-18.353 18.353-18.498-18.498a7.903 7.903 0 0 0-11.175 11.176l18.498 18.498-18.353 18.353-42.089-42.089a7.903 7.903 0 0 0-11.175 11.176l42.089 42.088-16.064 16.064c-1.634 1.634-3.806 2.534-6.116 2.534s-4.482-.9-6.116-2.534l-65.457-65.458c-3.372-3.372-3.372-8.859 0-12.231l160.857-160.858 77.69 77.69zM33.423 86.998c-14.766-14.766-14.766-38.792 0-53.558 14.766-14.767 38.792-14.767 53.558 0l24.976 24.976-53.558 53.558-24.976-24.976zm83.375 29.805l-.005.005-.005.005-26.774 26.774-20.439-20.439 53.558-53.558 20.439 20.439-26.774 26.774zm366.905 366.878l-77.864-30.229 47.601-47.601 30.263 77.83z"/></symbol><symbol viewBox="0 0 54 54" id="settings" xmlns="http://www.w3.org/2000/svg"><path d="M51.22 21h-5.052c-.812 0-1.481-.447-1.792-1.197s-.153-1.54.42-2.114l3.572-3.571a2.763 2.763 0 0 0 .814-1.966c0-.743-.289-1.441-.814-1.967l-4.553-4.553c-1.05-1.05-2.881-1.052-3.933 0l-3.571 3.571c-.574.573-1.366.733-2.114.421A1.885 1.885 0 0 1 33 7.832V2.78A2.783 2.783 0 0 0 30.22 0h-6.44A2.783 2.783 0 0 0 21 2.78v5.052c0 .812-.447 1.481-1.197 1.792-.748.313-1.54.152-2.114-.421l-3.571-3.571c-1.052-1.052-2.883-1.05-3.933 0l-4.553 4.553a2.764 2.764 0 0 0-.814 1.967c0 .742.289 1.44.814 1.966l3.572 3.571c.573.574.73 1.364.42 2.114S8.644 21 7.832 21H2.78A2.783 2.783 0 0 0 0 23.78v6.439A2.783 2.783 0 0 0 2.78 33h5.052c.812 0 1.481.447 1.792 1.197s.153 1.54-.42 2.114l-3.572 3.571a2.763 2.763 0 0 0-.814 1.966c0 .743.289 1.441.814 1.967l4.553 4.553c1.051 1.051 2.881 1.053 3.933 0l3.571-3.572a1.887 1.887 0 0 1 2.114-.42c.75.311 1.197.98 1.197 1.792v5.052A2.783 2.783 0 0 0 23.78 54h6.439a2.783 2.783 0 0 0 2.78-2.78v-5.052c0-.812.447-1.481 1.197-1.792a1.885 1.885 0 0 1 2.114.42l3.571 3.572c1.052 1.052 2.883 1.05 3.933 0l4.553-4.553a2.764 2.764 0 0 0 .814-1.967c0-.742-.289-1.44-.814-1.966l-3.572-3.571c-.573-.574-.73-1.364-.42-2.114S45.356 33 46.168 33h5.052A2.783 2.783 0 0 0 54 30.22v-6.44A2.783 2.783 0 0 0 51.22 21zm.78 9.22c0 .43-.35.78-.78.78h-5.052a3.879 3.879 0 0 0-3.64 2.432 3.877 3.877 0 0 0 .854 4.294l3.572 3.571a.78.78 0 0 1 0 1.104l-4.553 4.553a.78.78 0 0 1-1.104 0l-3.571-3.572c-1.149-1.149-2.794-1.474-4.294-.854A3.879 3.879 0 0 0 31 46.168v5.052c0 .43-.35.78-.78.78h-6.44c-.43 0-.78-.35-.78-.78v-5.052a3.879 3.879 0 0 0-2.432-3.64 3.985 3.985 0 0 0-1.533-.311c-1.014 0-1.997.4-2.761 1.164l-3.571 3.572a.78.78 0 0 1-1.104 0L7.046 42.4a.78.78 0 0 1 0-1.104l3.572-3.571a3.879 3.879 0 0 0 .854-4.294A3.88 3.88 0 0 0 7.832 31H2.78c-.43 0-.78-.35-.78-.78v-6.44c0-.43.35-.78.78-.78h5.052a3.879 3.879 0 0 0 3.64-2.432 3.877 3.877 0 0 0-.854-4.294l-3.572-3.571a.78.78 0 0 1 0-1.104l4.553-4.553a.78.78 0 0 1 1.104 0l3.571 3.571a3.88 3.88 0 0 0 4.294.854A3.876 3.876 0 0 0 23 7.832V2.78c0-.43.35-.78.78-.78h6.439c.431 0 .781.35.781.78v5.052c0 1.624.932 3.019 2.432 3.64a3.878 3.878 0 0 0 4.294-.854l3.571-3.571a.78.78 0 0 1 1.104 0l4.553 4.553a.78.78 0 0 1 0 1.104l-3.572 3.571a3.879 3.879 0 0 0-.854 4.294 3.879 3.879 0 0 0 3.64 2.432h5.052a.78.78 0 0 1 .78.779v6.44z"/><path d="M27 18c-4.963 0-9 4.037-9 9s4.037 9 9 9 9-4.037 9-9-4.037-9-9-9zm0 16c-3.859 0-7-3.141-7-7s3.141-7 7-7 7 3.141 7 7-3.141 7-7 7z"/></symbol><symbol viewBox="0 0 512 512" id="truck" xmlns="http://www.w3.org/2000/svg"><path d="M119.467 337.067c-28.237 0-51.2 22.963-51.2 51.2 0 28.237 22.963 51.2 51.2 51.2s51.2-22.963 51.2-51.2c0-28.237-22.964-51.2-51.2-51.2zm0 85.333c-18.825 0-34.133-15.309-34.133-34.133 0-18.825 15.309-34.133 34.133-34.133s34.133 15.309 34.133 34.133c0 18.824-15.309 34.133-34.133 34.133zM409.6 337.067c-28.237 0-51.2 22.963-51.2 51.2 0 28.237 22.963 51.2 51.2 51.2 28.237 0 51.2-22.963 51.2-51.2 0-28.237-22.963-51.2-51.2-51.2zm0 85.333c-18.825 0-34.133-15.309-34.133-34.133 0-18.825 15.309-34.133 34.133-34.133 18.825 0 34.133 15.309 34.133 34.133 0 18.824-15.308 34.133-34.133 34.133z"/><path d="M510.643 289.784l-76.8-119.467a8.535 8.535 0 0 0-7.177-3.917H332.8a8.53 8.53 0 0 0-8.533 8.533v213.333a8.525 8.525 0 0 0 8.533 8.533h34.133v-17.067h-25.6V183.467h80.674l72.926 113.442v82.825h-42.667V396.8h51.2a8.525 8.525 0 0 0 8.533-8.533V294.4a8.51 8.51 0 0 0-1.356-4.616z"/><path d="M375.467 277.333V217.6h68.267v-17.067h-76.8a8.53 8.53 0 0 0-8.533 8.533v76.8a8.525 8.525 0 0 0 8.533 8.533h128v-17.067H375.467zM332.8 106.667H8.533A8.536 8.536 0 0 0 0 115.2v273.067a8.53 8.53 0 0 0 8.533 8.533H76.8v-17.067H17.067v-256h307.2v256H162.133V396.8H332.8a8.525 8.525 0 0 0 8.533-8.533V115.2a8.53 8.53 0 0 0-8.533-8.533z"/><path d="M8.533 345.6h51.2v17.067h-51.2zm170.667 0h145.067v17.067H179.2zm290.133 0h34.133v17.067h-34.133zm-435.2-204.8H332.8v17.067H34.133zm76.8 238.933H128V396.8h-17.067zm290.134 0h17.067V396.8h-17.067zM34.133 72.533H153.6V89.6H34.133zM0 72.533h17.067V89.6H0z"/></symbol><symbol class="hsvg-inline--fa hfa-twitter hfa-w-16" viewBox="0 0 512 512" id="twitter-brands" xmlns="http://www.w3.org/2000/svg"><path d="M459.37 151.716c.325 4.548.325 9.097.325 13.645 0 138.72-105.583 298.558-298.558 298.558-59.452 0-114.68-17.219-161.137-47.106 8.447.974 16.568 1.299 25.34 1.299 49.055 0 94.213-16.568 130.274-44.832-46.132-.975-84.792-31.188-98.112-72.772 6.498.974 12.995 1.624 19.818 1.624 9.421 0 18.843-1.3 27.614-3.573-48.081-9.747-84.143-51.98-84.143-102.985v-1.299c13.969 7.797 30.214 12.67 47.431 13.319-28.264-18.843-46.781-51.005-46.781-87.391 0-19.492 5.197-37.36 14.294-52.954 51.655 63.675 129.3 105.258 216.365 109.807-1.624-7.797-2.599-15.918-2.599-24.04 0-57.828 46.782-104.934 104.934-104.934 30.213 0 57.502 12.67 76.67 33.137 23.715-4.548 46.456-13.32 66.599-25.34-7.798 24.366-24.366 44.833-46.132 57.827 21.117-2.273 41.584-8.122 60.426-16.243-14.292 20.791-32.161 39.308-52.628 54.253z"/></symbol></svg>